# Blender v2.91.2 OBJ File: ''
# www.blender.org
mtllib drone.mtl
o Cube
v 1.000000 0.050000 -1.000000
v 1.000000 -0.050000 -1.000000
v 1.000000 0.050000 1.000000
v 1.000000 -0.050000 1.000000
v -1.000000 0.050000 -1.000000
v -1.000000 -0.050000 -1.000000
v -1.000000 0.050000 1.000000
v -1.000000 -0.050000 1.000000
v -0.300517 0.050000 1.000000
v -0.300517 0.050000 0.464724
v 0.292909 0.050000 0.317635
v 0.292909 0.050000 1.000000
v 0.194005 0.050000 0.317635
v -0.300517 0.050000 0.317635
v -0.300517 -0.050000 1.000000
v -0.300517 -0.040979 1.000000
v 0.292909 -0.050000 1.000000
v 0.292909 0.040979 1.000000
v -0.201613 -0.050000 0.317635
v -0.300517 -0.050000 0.317635
v 0.292909 -0.050000 0.317635
v 0.292909 -0.050000 0.464724
v 0.292909 -0.050000 -1.000000
v -0.300517 -0.050000 -1.000000
v -0.300517 0.050000 -1.000000
v 0.292909 0.050000 -1.000000
v -0.201613 0.050000 -0.306223
v -0.300517 0.050000 -0.965585
v -0.300517 0.050000 -0.306223
v 0.292909 0.050000 -0.438095
v 0.292909 0.050000 -0.306223
v -0.300517 -0.050000 -0.306223
v -0.300517 -0.050000 -0.438095
v 0.292909 -0.050000 -0.965585
v 0.292909 -0.050000 -0.306223
v 0.194005 -0.050000 -0.306223
v 1.000000 -0.050000 0.291007
v 1.000000 -0.050000 -0.294811
v 0.998883 0.049956 -0.295545
v 1.000000 0.050000 0.291007
v 0.515444 0.050000 0.291007
v 0.399422 0.050000 0.291007
v 0.399422 0.050000 -0.197175
v 0.399422 0.050000 -0.294811
v 0.978854 0.049950 -0.295724
v 0.515444 -0.050000 -0.294811
v 0.399422 -0.050000 -0.294811
v 0.979533 -0.050000 0.291007
v 0.399422 -0.050000 0.193371
v 0.399422 -0.050000 0.291007
v -1.000000 -0.050000 -0.294811
v -1.000000 -0.050000 0.306223
v -1.000000 0.050000 0.306223
v -1.000000 0.050000 -0.294811
v -0.986507 0.050000 0.306223
v -0.422245 0.050000 -0.294811
v -0.535098 0.050000 -0.294811
v -0.422245 0.050000 0.306223
v -0.422245 0.050000 0.206051
v -0.535098 -0.050000 0.306223
v -0.422245 -0.050000 0.306223
v -0.986507 -0.050000 -0.294811
v -0.422245 -0.050000 -0.294811
v -0.422245 -0.050000 -0.194638
vt 0.000000 0.000000
vt 0.000000 0.000000
vt 0.000000 0.000000
vt 0.000000 0.000000
vt 0.000000 0.000000
vt 0.000000 0.000000
vt 0.000000 0.000000
vt 0.000000 0.000000
vt 0.000000 0.000000
vt 0.000000 0.000000
vt 0.000000 0.000000
vt 0.000000 0.000000
vt 0.625000 0.750000
vt 0.625000 0.838386
vt 0.602447 0.838386
vt 0.375000 1.000000
vt 0.375000 0.912565
vt 0.397553 0.912565
vt 0.000000 0.000000
vt 0.000000 0.000000
vt 0.000000 0.000000
vt 0.000000 0.000000
vt 0.000000 0.000000
vt 0.000000 0.000000
vt 0.000000 0.000000
vt 0.000000 0.000000
vt 0.000000 0.000000
vt 0.000000 0.000000
vt 0.000000 0.000000
vt 0.000000 0.000000
vt 0.000000 0.000000
vt 0.625000 0.250000
vt 0.375000 0.337435
vt 0.375000 0.250000
vt 0.625000 0.500000
vt 0.375000 0.411614
vt 0.625000 0.411614
vt 0.000000 0.000000
vt 0.000000 0.000000
vt 0.000000 0.000000
vt 0.000000 0.000000
vt 0.000000 0.000000
vt 0.000000 0.000000
vt 0.000000 0.000000
vt 0.000000 0.000000
vt 0.000000 0.000000
vt 0.000000 0.000000
vt 0.000000 0.000000
vt 0.000000 0.000000
vt 0.000000 0.000000
vt 0.375000 0.500000
vt 0.625000 0.588149
vt 0.375000 0.588149
vt 0.375000 0.750000
vt 0.625000 0.661376
vt 0.000000 0.000000
vt 0.000000 0.000000
vt 0.000000 0.000000
vt 0.000000 0.000000
vt 0.000000 0.000000
vt 0.000000 0.000000
vt 0.000000 0.000000
vt 0.000000 0.000000
vt 0.000000 0.000000
vt 0.000000 0.000000
vt 0.000000 0.000000
vt 0.000000 0.000000
vt 0.000000 0.000000
vt 0.625000 0.000000
vt 0.375000 0.086722
vt 0.375000 0.000000
vt 0.375000 0.161851
vt 0.625000 0.161851
vt 0.713386 0.664704
vt 0.713386 0.750000
vt 0.700072 0.661376
vt 0.126687 0.588149
vt 0.125000 0.588149
vt 0.125000 0.500000
vt 0.000000 0.000000
vt 0.000000 0.000000
vt 0.375000 0.838386
vt 0.625000 0.912565
vt 0.625000 1.000000
vt 0.000000 0.000000
vt 0.625000 0.337435
vt 0.000000 0.000000
vt 0.375000 0.661376
vt 0.000000 0.000000
vt 0.625000 0.086722
vt 0.627558 0.588149
vt 0.713386 0.500000
vt 0.713386 0.570238
vt 0.713386 0.586722
vt 0.775202 0.586722
vt 0.725749 0.664704
vt 0.787565 0.586722
vt 0.802781 0.650756
vt 0.700072 0.600353
vt 0.700072 0.588149
vt 0.787565 0.664704
vt 0.787565 0.504302
vt 0.802781 0.588149
vt 0.787565 0.500000
vt 0.875000 0.500000
vt 0.685569 0.661376
vt 0.816887 0.588149
vt 0.875000 0.588149
vt 0.802781 0.663278
vt 0.873313 0.663278
vt 0.787565 0.683091
vt 0.875000 0.663278
vt 0.875000 0.750000
vt 0.787565 0.750000
vt 0.299928 0.661376
vt 0.372442 0.661376
vt 0.286614 0.683090
vt 0.286614 0.750000
vt 0.286614 0.664704
vt 0.299928 0.588149
vt 0.299928 0.649171
vt 0.286614 0.586722
vt 0.224798 0.664704
vt 0.274251 0.586722
vt 0.212435 0.664704
vt 0.197219 0.600670
vt 0.314431 0.588149
vt 0.286614 0.504302
vt 0.286614 0.500000
vt 0.212435 0.586722
vt 0.212435 0.750000
vt 0.197219 0.663278
vt 0.125000 0.750000
vt 0.183113 0.663278
vt 0.125000 0.663278
vt 0.197219 0.588149
vt 0.212435 0.500000
vt 0.212435 0.570238
vn -1.0000 0.0000 0.0000
vn 1.0000 0.0000 0.0000
vn 0.0000 0.0000 1.0000
vn 0.0000 0.0000 -1.0000
vn 0.0000 0.0091 1.0000
vn 0.0016 0.0018 1.0000
vn 0.9999 0.0112 0.0000
vn 0.0000 1.0000 0.0000
vn 0.0000 -1.0000 0.0000
vn -0.0089 0.0072 0.9999
vn 1.0000 0.0000 0.0016
vn -0.0003 1.0000 0.0001
vn 0.0001 1.0000 0.0001
vn 0.0001 1.0000 -0.0001
usemtl Material
s off
f 18/1/1 22/2/1 17/3/1
f 16/4/2 20/5/2 10/6/2
f 21/7/3 13/8/3 19/9/3
f 18/1/1 11/10/1 22/2/1
f 16/4/2 10/6/2 9/11/2
f 14/12/3 19/9/3 13/8/3
f 3/13/3 12/14/3 18/15/3
f 8/16/3 15/17/3 16/18/3
f 30/19/1 35/20/1 31/21/1
f 27/22/4 32/23/4 29/24/4
f 24/25/2 28/26/2 33/27/2
f 34/28/1 26/29/1 23/30/1
f 36/31/4 31/21/4 35/20/4
f 29/24/2 33/27/2 28/26/2
f 5/32/4 24/33/4 6/34/4
f 1/35/4 23/36/4 26/37/4
f 41/38/4 50/39/4 42/40/4
f 47/41/2 43/42/2 49/43/2
f 38/44/5 45/45/5 46/46/5
f 48/47/4 40/48/4 37/49/4
f 42/40/2 49/43/2 43/42/2
f 44/50/6 46/46/6 45/45/6
f 2/51/7 39/52/7 38/53/7
f 4/54/2 40/55/2 3/13/2
f 59/56/1 61/57/1 58/58/1
f 55/59/4 52/60/4 53/61/4
f 63/62/3 57/63/3 62/64/3
f 64/65/1 56/66/1 63/62/1
f 58/58/4 60/67/4 55/59/4
f 54/68/3 62/64/3 57/63/3
f 7/69/1 52/70/1 8/71/1
f 5/32/1 51/72/1 54/73/1
f 11/74/8 12/75/8 42/76/8
f 62/77/9 51/78/9 6/79/9
f 15/80/2 20/5/2 16/4/2
f 20/5/2 14/12/2 10/6/2
f 21/7/3 11/10/3 13/8/3
f 12/81/1 11/10/1 18/1/1
f 11/10/1 21/7/1 22/2/1
f 14/12/3 20/5/3 19/9/3
f 18/15/3 17/82/3 4/54/3
f 4/54/3 3/13/3 18/15/3
f 16/18/3 9/83/3 7/84/3
f 7/84/3 8/16/3 16/18/3
f 30/19/1 34/28/1 35/20/1
f 27/22/4 36/31/4 32/23/4
f 24/25/2 25/85/2 28/26/2
f 34/28/1 30/19/1 26/29/1
f 36/31/4 27/22/4 31/21/4
f 29/24/2 32/23/2 33/27/2
f 5/32/4 25/86/4 24/33/4
f 1/35/4 2/51/4 23/36/4
f 41/38/4 48/47/4 50/39/4
f 47/41/2 44/50/2 43/42/2
f 38/44/10 39/87/10 45/45/10
f 48/47/4 41/38/4 40/48/4
f 42/40/2 50/39/2 49/43/2
f 44/50/3 47/41/3 46/46/3
f 2/51/11 1/35/11 39/52/11
f 4/54/2 37/88/2 40/55/2
f 59/56/1 64/65/1 61/57/1
f 55/59/4 60/67/4 52/60/4
f 63/62/3 56/66/3 57/63/3
f 64/65/1 59/56/1 56/66/1
f 58/58/4 61/57/4 60/67/4
f 54/68/3 51/89/3 62/64/3
f 7/69/1 53/90/1 52/70/1
f 5/32/1 6/34/1 51/72/1
f 45/91/12 39/52/12 1/35/12
f 1/35/8 26/92/8 30/93/8
f 31/94/8 27/95/8 13/96/8
f 27/95/8 29/97/8 59/98/8
f 31/94/8 43/99/8 44/100/8
f 1/35/13 30/93/13 45/91/13
f 30/93/8 31/94/8 44/100/8
f 44/100/14 45/91/14 30/93/14
f 42/76/8 43/99/8 11/74/8
f 13/96/8 27/95/8 14/101/8
f 29/97/8 28/102/8 56/103/8
f 28/102/8 25/104/8 5/105/8
f 43/99/8 31/94/8 13/96/8
f 40/55/8 41/106/8 3/13/8
f 41/106/8 42/76/8 12/75/8
f 3/13/8 41/106/8 12/75/8
f 28/102/8 5/105/8 57/107/8
f 56/103/8 28/102/8 57/107/8
f 5/105/8 54/108/8 57/107/8
f 56/103/8 59/98/8 29/97/8
f 59/98/8 58/109/8 14/101/8
f 58/109/8 55/110/8 10/111/8
f 55/110/8 53/112/8 7/113/8
f 43/99/8 13/96/8 11/74/8
f 59/98/8 14/101/8 27/95/8
f 55/110/8 7/113/8 10/111/8
f 7/113/8 9/114/8 10/111/8
f 10/111/8 14/101/8 58/109/8
f 50/115/9 48/116/9 22/117/9
f 48/116/9 37/88/9 4/54/9
f 22/117/9 4/54/9 17/118/9
f 48/116/9 4/54/9 22/117/9
f 22/117/9 21/119/9 50/115/9
f 47/120/9 49/121/9 35/122/9
f 49/121/9 50/115/9 21/119/9
f 21/119/9 19/123/9 36/124/9
f 19/123/9 20/125/9 64/126/9
f 36/124/9 49/121/9 21/119/9
f 35/122/9 49/121/9 36/124/9
f 2/51/9 38/53/9 46/127/9
f 2/51/9 46/127/9 34/128/9
f 46/127/9 47/120/9 34/128/9
f 34/128/9 23/129/9 2/51/9
f 32/130/9 36/124/9 19/123/9
f 19/123/9 64/126/9 32/130/9
f 35/122/9 34/128/9 47/120/9
f 20/125/9 15/131/9 61/132/9
f 15/131/9 8/133/9 60/134/9
f 61/132/9 15/131/9 60/134/9
f 8/133/9 52/135/9 60/134/9
f 61/132/9 64/126/9 20/125/9
f 64/126/9 63/136/9 32/130/9
f 24/137/9 33/138/9 6/79/9
f 33/138/9 32/130/9 63/136/9
f 6/79/9 33/138/9 63/136/9
f 63/136/9 62/77/9 6/79/9
